<?xml version="1.0" encoding="utf-8"?>
<!-- Generator: Adobe Illustrator 25.2.1, SVG Export Plug-In . SVG Version: 6.00 Build 0)  -->
<svg version="1.1"
	 id="SVGRoot" xmlns:inkscape="http://www.inkscape.org/namespaces/inkscape" xmlns:sodipodi="http://sodipodi.sourceforge.net/DTD/sodipodi-0.dtd" xmlns:svg="http://www.w3.org/2000/svg"
	 xmlns="http://www.w3.org/2000/svg" xmlns:xlink="http://www.w3.org/1999/xlink" x="0px" y="0px" viewBox="0 0 209.8 147.4"
	 style="enable-background:new 0 0 209.8 147.4;" xml:space="preserve">
<style type="text/css">
	.st0{fill:none;}
	.st1{fill:#FFFFFF;}
	.st2{fill:#FFEC00;}
	.st3{fill:#FFFFFF;stroke:#FFFFFF;stroke-width:0.182;stroke-miterlimit:10;}
	.st4{fill:none;stroke:#FFFFFF;stroke-width:0.182;stroke-miterlimit:10;}
	.st5{fill:#323A45;}
	.st6{enable-background:new    ;}
</style>
<sodipodi:namedview  bordercolor="#ffffff" borderopacity="0.25" id="namedview2667" inkscape:current-layer="layer1" inkscape:cx="125.59197" inkscape:cy="81.538174" inkscape:deskcolor="#d1d1d1" inkscape:document-units="mm" inkscape:pagecheckerboard="0" inkscape:pageopacity="0.0" inkscape:showpageshadow="2" inkscape:window-height="1259" inkscape:window-maximized="0" inkscape:window-width="1649" inkscape:window-x="418" inkscape:window-y="418" inkscape:zoom="1.2938725" pagecolor="#ffffff" showgrid="false">
	</sodipodi:namedview>
<rect x="-79.6" y="-125.1" class="st0" width="382.2" height="540.5"/>
<rect id="rect94" x="14.4" y="20.9" class="st0" width="176.1" height="47.6"/>
<path class="st1" d="M28.2,53.1c0,3.5,2.3,5.3,6.1,5.3c5,0,6.8-2.1,6.8-6.4V23.6h13.7v27.6c0,10.6-6.3,15.8-19.2,15.8
	c-13.1,0-19.1-5.2-19.1-16c0-0.2,0.1-0.8,0.1-1.8h11.6C28.2,49.2,28.2,53.1,28.2,53.1z"/>
<path class="st1" d="M14.6,47.7c0,1.4-0.1,2.3-0.1,2.5c0,12.3,6,18.2,20.6,18.2c14.1,0,21.5-5.6,21.5-16V22.1H39.1v28.8
	c0,4-0.6,6.1-4.6,6.1C31,57,30,55.2,30,51.9v-4.2H14.6z"/>
<path class="st1" d="M66.7,67.1H84V51.6h7.4c5.3,0,7.4,1.5,7.4,6.3v9.2h16.7v-1.6v-9.3c-0.2-6-2.5-8.8-8.9-10
	c6.1-2.2,8.8-5.6,8.8-11.1c0-9.8-7.4-13-22.7-13h-26V67.1z"/>
<path class="st1" d="M82.1,42.9h9.8c6.1,0,9.2-1.2,9.2-5.6c0-4.8-3.3-5.7-9.8-5.7H82v11.3H82.1z"/>
<path class="st1" d="M90.9,23.6c15,0,22.7,1.8,22.7,11.4c0,5.9-2.9,9.1-10.1,11.2c7.7,1.8,9.9,4.1,10.2,10v9.5h-13v-8.3
	c0-4.8-2.7-7.2-8.4-7.2H82.1v15.5H68.6V23.6H90.9z"/>
<path class="st1" d="M84,41.4V33h7.5c5,0,7.8,0.4,7.8,4.3c0,3.5-2.6,4.2-7.4,4.2L84,41.4L84,41.4z"/>
<polygon class="st1" points="135.9,67.1 153.4,67.1 153.4,33.9 168.8,33.9 168.8,22.1 120.2,22.1 120.2,33.9 135.9,33.9 "/>
<polygon class="st1" points="151.5,65.7 137.8,65.7 137.8,32.5 122.1,32.5 122.1,23.6 166.9,23.6 166.9,32.5 151.5,32.5 "/>
<rect x="174.3" y="33.9" class="st1" width="16.1" height="33.2"/>
<rect x="174.3" y="21" class="st2" width="16.1" height="9.5"/>
<rect x="176.2" y="35.3" class="st1" width="12.3" height="30.4"/>
<rect x="176.2" y="22.4" class="st1" width="12.3" height="6.6"/>
<path id="path98" class="st3" d="M28.2,53.1c0,3.5,2.3,5.3,6.1,5.3c5,0,6.8-2.1,6.8-6.4V23.6h13.7v27.6c0,10.6-6.3,15.8-19.2,15.8
	c-13.1,0-19.1-5.2-19.1-16c0-0.2,0.1-0.8,0.1-1.8h11.6C28.2,49.2,28.2,53.1,28.2,53.1z"/>
<path id="path100" class="st4" d="M14.6,47.7c0,1.4-0.1,2.3-0.1,2.5c0,12.3,6,18.2,20.6,18.2c14.1,0,21.5-5.6,21.5-16V22.1H39.1
	v28.8c0,4-0.6,6.1-4.6,6.1C31,57,30,55.2,30,51.9v-4.2H14.6z"/>
<path id="path102" class="st4" d="M66.7,67.1H84V51.6h7.4c5.3,0,7.4,1.5,7.4,6.3v9.2h16.7v-1.6v-9.3c-0.2-6-2.5-8.8-8.9-10
	c6.1-2.2,8.8-5.6,8.8-11.1c0-9.8-7.4-13-22.7-13h-26V67.1z"/>
<path id="path104" class="st4" d="M82.1,42.9h9.8c6.1,0,9.2-1.2,9.2-5.6c0-4.8-3.3-5.7-9.8-5.7H82v11.3H82.1z"/>
<path id="path106" class="st3" d="M90.9,23.6c15,0,22.7,1.8,22.7,11.4c0,5.9-2.9,9.1-10.1,11.2c7.7,1.8,9.9,4.1,10.2,10v9.5h-13
	v-8.3c0-4.8-2.7-7.2-8.4-7.2H82.1v15.5H68.6V23.6H90.9z"/>
<path id="path108" class="st5" d="M84,41.4V33h7.5c5,0,7.8,0.4,7.8,4.3c0,3.5-2.6,4.2-7.4,4.2L84,41.4L84,41.4z"/>
<path id="path110" class="st4" d="M135.9,67.1h17.5V33.9h15.4V22.1h-48.6v11.8h15.7V67.1z"/>
<path id="path112" class="st3" d="M151.5,65.7h-13.7V32.5h-15.7v-8.9h44.8v8.9h-15.4L151.5,65.7L151.5,65.7z"/>
<path id="path114" class="st4" d="M174.3,67.1h16.1V33.9h-16.1V67.1z"/>
<path id="path118" class="st3" d="M176.2,65.7V35.3h12.3v30.4H176.2z"/>
<g id="g152">
	<g id="id4">
		<rect id="rect125" x="7.1" y="77.6" class="st0" width="194" height="20.4"/>
		<path id="path127" class="st1" d="M32.6,83.7h-6c0-0.2,0-0.3,0-0.4c-0.1-1.1-0.5-1.8-1.2-2.1c-0.7-0.3-2.2-0.4-4.7-0.4
			c-2.9,0-4.8,0.2-5.7,0.5s-1.3,1-1.3,2.1c0,1.2,0.4,2,1.1,2.2c0.7,0.3,3.1,0.5,7.2,0.6c4.8,0.2,8,0.6,9.4,1.3
			c1.4,0.7,2.1,2.1,2.1,4.2c0,2.6-0.8,4.3-2.5,5.1S25.7,98,20,98c-5.1,0-8.5-0.4-10.2-1.1C8,96,7.2,94.5,7.2,92.2v-0.7h6v0.4
			c0,1.4,0.4,2.2,1.2,2.5s2.9,0.5,6.5,0.5c2.8,0,4.5-0.2,5.3-0.5c0.8-0.4,1.1-1.2,1.1-2.5c0-1-0.3-1.6-0.9-1.9s-1.8-0.5-3.7-0.6
			l-3.4-0.1c-5.2-0.2-8.4-0.6-9.9-1.3c-1.4-0.7-2.1-2.2-2.1-4.4c0-2.3,0.9-3.9,2.6-4.6c1.7-0.8,5.2-1.1,10.3-1.1
			c4.9,0,8.2,0.3,9.9,1.1c1.7,0.7,2.5,2.1,2.5,4.1V83.7z M43,77.9v2.8h-5.5v-2.8H43z M43,83.8v13.9h-5.5V83.8H43z M67.3,87.6H62
			c0-0.1-0.1-0.2-0.1-0.3c-0.1-0.7-0.4-1.1-0.9-1.3c-0.5-0.2-1.8-0.2-3.7-0.2c-2.8,0-4.3,0.5-4.3,1.7c0,0.8,0.3,1.2,0.7,1.4
			c0.5,0.1,2.2,0.3,5.1,0.3c3.9,0.1,6.4,0.4,7.6,0.9c1.2,0.5,1.8,1.6,1.8,3.1c0,1.7-0.8,2.9-2.3,3.5c-1.5,0.7-4.4,1-8.4,1
			c-3.9,0-6.6-0.3-8-0.9s-2.1-1.7-2.1-3.3v-0.3h5.7C53,93.4,53,93.5,53,93.7c-0.2,1.2,1.3,1.9,4.7,1.9s5.2-0.6,5.2-1.8
			c0-1.2-1.1-1.7-3.2-1.7c-4.9,0-8.1-0.3-9.6-0.9s-2.3-1.7-2.3-3.5c0-1.6,0.7-2.7,2.1-3.2c1.4-0.6,4.1-0.8,8.1-0.8
			c3.8,0,6.4,0.3,7.7,0.8C66.7,85,67.3,86.1,67.3,87.6z M87.2,83.8v2.5h-8.8v7c0,1.3,0.8,1.9,2.4,1.9c1.8,0,2.6-0.8,2.6-2.3v-0.6H88
			V93c0,0.6,0,1.2-0.1,1.6c-0.3,2.1-2.9,3.2-7.8,3.2s-7.3-1.4-7.3-4.1v-7.5h-3v-2.5h3v-3.1h5.4v3.1h9V83.8z M105.8,93.3h5.5v0.5
			c0,2.7-3.3,4.1-10,4.1c-4.5,0-7.5-0.5-8.9-1.4s-2.1-2.9-2.1-6c0-2.7,0.7-4.5,2.2-5.5c1.5-0.9,4.3-1.4,8.5-1.4
			c4.1,0,6.8,0.4,8.2,1.3c1.4,0.9,2.1,2.7,2.1,5.4v1H95.8c0,0.3,0,0.5,0,0.6c0,1.4,0.3,2.3,1,2.7c0.7,0.5,2.1,0.7,4.1,0.7
			s3.3-0.1,3.9-0.4C105.5,94.7,105.8,94.2,105.8,93.3z M105.8,89.3v-0.5c0-1.1-0.3-1.9-0.9-2.2c-0.6-0.3-2-0.5-4.1-0.5
			c-2,0-3.4,0.2-4,0.6s-0.9,1.3-0.9,2.6H105.8z M115.8,83.8h5.5l-0.1,2.1h0.1c1.1-1.5,3.4-2.3,7-2.3c4.1,0,6.4,0.9,6.9,2.6h0.1
			c1.1-1.7,3.4-2.6,7-2.6c5.3,0,7.9,1.6,7.9,4.9v9.2h-5.5v-8.5c0-2-1.3-3-4-3c-3.3,0-5,1.1-5,3.3v8.1h-5.5V89c0-1.2-0.3-1.9-0.7-2.3
			c-0.5-0.4-1.6-0.5-3.2-0.5c-3.3,0-5,1.1-5,3.4v8h-5.5V83.8z M161.3,87.9h-5.6c0-1.7,0.6-2.8,1.9-3.3c1.3-0.6,3.8-0.8,7.6-0.8
			c4.1,0,6.9,0.3,8.3,1c1.5,0.7,2.2,2,2.2,3.9v9.1h-5.4l0.3-1.9h-0.1c-1,1.4-3.5,2.1-7.3,2.1c-5.5,0-8.3-1.4-8.3-4.3
			s2.8-4.3,8.4-4.3c3.8,0,6.1,0.5,6.9,1.6h0.1v-2.3c0-1.1-0.3-1.8-0.9-2.2c-0.6-0.3-1.9-0.5-3.8-0.5
			C162.7,85.9,161.3,86.5,161.3,87.9z M165,91.5c-3.1,0-4.6,0.6-4.6,1.9c0,0.9,0.3,1.5,1,1.8c0.6,0.3,2,0.4,4,0.4c3.3,0,5-0.7,5-2.1
			C170.3,92.2,168.5,91.5,165,91.5z M200.1,87.6h-5.3c0-0.1-0.1-0.2-0.1-0.3c-0.1-0.7-0.4-1.1-0.9-1.3c-0.5-0.2-1.8-0.2-3.7-0.2
			c-2.8,0-4.3,0.5-4.3,1.7c0,0.8,0.3,1.2,0.8,1.4c0.5,0.1,2.2,0.3,5.1,0.3c3.9,0.1,6.4,0.4,7.6,0.9c1.2,0.5,1.8,1.6,1.8,3.1
			c0,1.7-0.8,2.9-2.3,3.5c-1.6,0.7-4.4,1-8.4,1c-3.9,0-6.6-0.3-8-0.9s-2.1-1.7-2.1-3.3v-0.3h5.7c-0.1,0.2-0.1,0.3-0.1,0.5
			c-0.2,1.2,1.3,1.9,4.7,1.9s5.2-0.6,5.2-1.8c0-1.2-1.1-1.7-3.2-1.7c-4.9,0-8.1-0.3-9.6-0.9s-2.3-1.7-2.3-3.5c0-1.6,0.7-2.7,2.1-3.2
			c1.4-0.6,4.1-0.8,8.2-0.8c3.8,0,6.3,0.3,7.6,0.8C199.5,85,200.1,86.1,200.1,87.6z"/>
		<path id="path129" class="st4" d="M32.6,83.7h-6c0-0.2,0-0.3,0-0.4c-0.1-1.1-0.5-1.8-1.2-2.1c-0.7-0.3-2.2-0.4-4.7-0.4
			c-2.9,0-4.8,0.2-5.7,0.5s-1.3,1-1.3,2.1c0,1.2,0.4,2,1.1,2.2c0.7,0.3,3.1,0.5,7.2,0.6c4.8,0.2,8,0.6,9.4,1.3
			c1.4,0.7,2.1,2.1,2.1,4.2c0,2.6-0.8,4.3-2.5,5.1S25.7,98,20,98c-5.1,0-8.5-0.4-10.2-1.1C8,96,7.2,94.5,7.2,92.2v-0.7h6v0.4
			c0,1.4,0.4,2.2,1.2,2.5s2.9,0.5,6.5,0.5c2.8,0,4.5-0.2,5.3-0.5c0.8-0.4,1.1-1.2,1.1-2.5c0-1-0.3-1.6-0.9-1.9s-1.8-0.5-3.7-0.6
			l-3.4-0.1c-5.2-0.2-8.4-0.6-9.9-1.3c-1.4-0.7-2.1-2.2-2.1-4.4c0-2.3,0.9-3.9,2.6-4.6c1.7-0.8,5.2-1.1,10.3-1.1
			c4.9,0,8.2,0.3,9.9,1.1c1.7,0.7,2.5,2.1,2.5,4.1V83.7z"/>
		<path id="path131" class="st4" d="M43,77.9v2.8h-5.5v-2.8H43z"/>
		<path id="path133" class="st4" d="M43,83.8v13.9h-5.5V83.8H43z"/>
		<path id="path135" class="st4" d="M67.3,87.6H62c0-0.1-0.1-0.2-0.1-0.3c-0.1-0.7-0.4-1.1-0.9-1.3c-0.5-0.2-1.8-0.2-3.7-0.2
			c-2.8,0-4.3,0.5-4.3,1.7c0,0.8,0.3,1.2,0.7,1.4c0.5,0.1,2.2,0.3,5.1,0.3c3.9,0.1,6.4,0.4,7.6,0.9c1.2,0.5,1.8,1.6,1.8,3.1
			c0,1.7-0.8,2.9-2.3,3.5c-1.5,0.7-4.4,1-8.4,1c-3.9,0-6.6-0.3-8-0.9s-2.1-1.7-2.1-3.3v-0.3h5.7C53,93.4,53,93.5,53,93.7
			c-0.2,1.2,1.3,1.9,4.7,1.9s5.2-0.6,5.2-1.8c0-1.2-1.1-1.7-3.2-1.7c-4.9,0-8.1-0.3-9.6-0.9s-2.3-1.7-2.3-3.5c0-1.6,0.7-2.7,2.1-3.2
			c1.4-0.6,4.1-0.8,8.1-0.8c3.8,0,6.4,0.3,7.7,0.8C66.7,85,67.3,86.1,67.3,87.6z"/>
		<path id="path137" class="st4" d="M87.2,83.8v2.5h-8.8v7c0,1.3,0.8,1.9,2.4,1.9c1.8,0,2.6-0.8,2.6-2.3v-0.6H88V93
			c0,0.6,0,1.2-0.1,1.6c-0.3,2.1-2.9,3.2-7.8,3.2s-7.3-1.4-7.3-4.1v-7.5h-3v-2.5h3v-3.1h5.4v3.1h9V83.8z"/>
		<path id="path139" class="st4" d="M105.8,93.3h5.5v0.5c0,2.7-3.3,4.1-10,4.1c-4.5,0-7.5-0.5-8.9-1.4s-2.1-2.9-2.1-6
			c0-2.7,0.7-4.5,2.2-5.5c1.5-0.9,4.3-1.4,8.5-1.4c4.1,0,6.8,0.4,8.2,1.3c1.4,0.9,2.1,2.7,2.1,5.4v1H95.8c0,0.3,0,0.5,0,0.6
			c0,1.4,0.3,2.3,1,2.7c0.7,0.5,2.1,0.7,4.1,0.7s3.3-0.1,3.9-0.4C105.5,94.7,105.8,94.2,105.8,93.3z"/>
		<path id="path141" class="st4" d="M105.8,89.3v-0.5c0-1.1-0.3-1.9-0.9-2.2c-0.6-0.3-2-0.5-4.1-0.5c-2,0-3.4,0.2-4,0.6
			s-0.9,1.3-0.9,2.6H105.8z"/>
		<path id="path143" class="st4" d="M115.8,83.8h5.5l-0.1,2.1h0.1c1.1-1.5,3.4-2.3,7-2.3c4.1,0,6.4,0.9,6.9,2.6h0.1
			c1.1-1.7,3.4-2.6,7-2.6c5.3,0,7.9,1.6,7.9,4.9v9.2h-5.5v-8.5c0-2-1.3-3-4-3c-3.3,0-5,1.1-5,3.3v8.1h-5.5V89c0-1.2-0.3-1.9-0.7-2.3
			c-0.5-0.4-1.6-0.5-3.2-0.5c-3.3,0-5,1.1-5,3.4v8h-5.5V83.8z"/>
		<path id="path145" class="st4" d="M161.3,87.9h-5.6c0-1.7,0.6-2.8,1.9-3.3c1.3-0.6,3.8-0.8,7.6-0.8c4.1,0,6.9,0.3,8.3,1
			c1.5,0.7,2.2,2,2.2,3.9v9.1h-5.4l0.3-1.9h-0.1c-1,1.4-3.5,2.1-7.3,2.1c-5.5,0-8.3-1.4-8.3-4.3s2.8-4.3,8.4-4.3
			c3.8,0,6.1,0.5,6.9,1.6h0.1v-2.3c0-1.1-0.3-1.8-0.9-2.2c-0.6-0.3-1.9-0.5-3.8-0.5C162.7,85.9,161.3,86.5,161.3,87.9z"/>
		<path id="path147" class="st4" d="M165,91.5c-3.1,0-4.6,0.6-4.6,1.9c0,0.9,0.3,1.5,1,1.8c0.6,0.3,2,0.4,4,0.4c3.3,0,5-0.7,5-2.1
			C170.3,92.2,168.5,91.5,165,91.5z"/>
		<path id="path149" class="st4" d="M200.1,87.6h-5.3c0-0.1-0.1-0.2-0.1-0.3c-0.1-0.7-0.4-1.1-0.9-1.3c-0.5-0.2-1.8-0.2-3.7-0.2
			c-2.8,0-4.3,0.5-4.3,1.7c0,0.8,0.3,1.2,0.8,1.4c0.5,0.1,2.2,0.3,5.1,0.3c3.9,0.1,6.4,0.4,7.6,0.9c1.2,0.5,1.8,1.6,1.8,3.1
			c0,1.7-0.8,2.9-2.3,3.5c-1.6,0.7-4.4,1-8.4,1c-3.9,0-6.6-0.3-8-0.9s-2.1-1.7-2.1-3.3v-0.3h5.7c-0.1,0.2-0.1,0.3-0.1,0.5
			c-0.2,1.2,1.3,1.9,4.7,1.9s5.2-0.6,5.2-1.8c0-1.2-1.1-1.7-3.2-1.7c-4.9,0-8.1-0.3-9.6-0.9s-2.3-1.7-2.3-3.5c0-1.6,0.7-2.7,2.1-3.2
			c1.4-0.6,4.1-0.8,8.2-0.8c3.8,0,6.3,0.3,7.6,0.8C199.5,85,200.1,86.1,200.1,87.6z"/>
	</g>
</g>
<g id="g159">
	<g id="id5">
		<rect id="rect154" x="175.8" y="22.4" class="st2" width="13" height="7"/>
		<path id="path156" class="st2" d="M175.8,22.4v7h13v-7H175.8z"/>
	</g>
</g>
<g class="st6">
	<path class="st1" d="M6.7,119.3l1.4-0.1c0.1,0.6,0.2,1,0.5,1.4c0.2,0.4,0.6,0.6,1.1,0.9c0.5,0.2,1.1,0.3,1.7,0.3
		c0.6,0,1-0.1,1.5-0.2c0.4-0.2,0.7-0.4,1-0.7c0.2-0.3,0.3-0.6,0.3-0.9c0-0.3-0.1-0.6-0.3-0.9c-0.2-0.3-0.5-0.5-1-0.7
		c-0.3-0.1-1-0.3-2-0.5s-1.7-0.5-2.1-0.7c-0.5-0.3-0.9-0.6-1.2-1s-0.4-0.9-0.4-1.4c0-0.6,0.2-1.1,0.5-1.6c0.3-0.5,0.8-0.9,1.4-1.1
		c0.6-0.3,1.3-0.4,2-0.4c0.8,0,1.5,0.1,2.2,0.4c0.6,0.3,1.1,0.7,1.4,1.2c0.3,0.5,0.5,1.1,0.5,1.7l-1.4,0.1c-0.1-0.7-0.3-1.2-0.8-1.6
		s-1.1-0.5-1.9-0.5c-0.9,0-1.5,0.2-1.9,0.5c-0.4,0.3-0.6,0.7-0.6,1.2c0,0.4,0.1,0.7,0.4,1c0.3,0.3,1,0.5,2.2,0.8
		c1.2,0.3,2,0.5,2.4,0.7c0.6,0.3,1.1,0.7,1.4,1.1c0.3,0.5,0.5,1,0.5,1.6c0,0.6-0.2,1.1-0.5,1.7c-0.3,0.5-0.8,0.9-1.4,1.2
		c-0.6,0.3-1.3,0.4-2.1,0.4c-1,0-1.8-0.1-2.5-0.4s-1.2-0.7-1.6-1.3C6.9,120.7,6.7,120,6.7,119.3z"/>
	<path class="st1" d="M16.8,118.8c0-1.5,0.4-2.6,1.2-3.3c0.7-0.6,1.5-0.9,2.5-0.9c1.1,0,2,0.4,2.7,1.1s1,1.7,1,3
		c0,1-0.2,1.8-0.5,2.4c-0.3,0.6-0.8,1-1.3,1.4c-0.6,0.3-1.2,0.5-1.9,0.5c-1.1,0-2-0.4-2.7-1.1S16.8,120.2,16.8,118.8z M18.2,118.8
		c0,1,0.2,1.8,0.7,2.3c0.4,0.5,1,0.8,1.7,0.8c0.7,0,1.2-0.3,1.7-0.8s0.7-1.3,0.7-2.3c0-1-0.2-1.7-0.7-2.2c-0.4-0.5-1-0.8-1.7-0.8
		c-0.7,0-1.2,0.3-1.7,0.8C18.4,117,18.2,117.8,18.2,118.8z"/>
	<path class="st1" d="M26.2,122.8v-6.9H25v-1.1h1.2V114c0-0.5,0-0.9,0.1-1.2c0.1-0.4,0.4-0.6,0.7-0.9c0.3-0.2,0.8-0.3,1.4-0.3
		c0.4,0,0.8,0,1.3,0.1l-0.2,1.2c-0.3,0-0.5-0.1-0.8-0.1c-0.4,0-0.7,0.1-0.9,0.3s-0.3,0.5-0.3,1v0.7h1.6v1.1h-1.6v6.9H26.2z"/>
	<path class="st1" d="M33.1,121.6l0.2,1.2c-0.4,0.1-0.7,0.1-1,0.1c-0.5,0-0.9-0.1-1.1-0.2s-0.5-0.4-0.6-0.6
		c-0.1-0.3-0.2-0.8-0.2-1.6v-4.6h-1v-1.1h1v-2l1.3-0.8v2.8h1.4v1.1h-1.4v4.7c0,0.4,0,0.6,0.1,0.7s0.1,0.2,0.2,0.3s0.3,0.1,0.5,0.1
		C32.6,121.6,32.8,121.6,33.1,121.6z"/>
	<path class="st1" d="M35.9,122.8l-2.4-8h1.4l1.3,4.6l0.5,1.7c0-0.1,0.2-0.6,0.4-1.6l1.3-4.7h1.4l1.2,4.6l0.4,1.5l0.5-1.5l1.4-4.6
		h1.3l-2.5,8h-1.4l-1.3-4.8l-0.3-1.4l-1.6,6.1H35.9z"/>
	<path class="st1" d="M50.8,121.8c-0.5,0.4-1,0.7-1.4,0.9c-0.5,0.2-1,0.3-1.5,0.3c-0.9,0-1.6-0.2-2-0.6c-0.5-0.4-0.7-1-0.7-1.6
		c0-0.4,0.1-0.7,0.3-1.1c0.2-0.3,0.4-0.6,0.7-0.8s0.6-0.3,1-0.4c0.3-0.1,0.7-0.1,1.2-0.2c1.1-0.1,1.9-0.3,2.4-0.5c0-0.2,0-0.3,0-0.4
		c0-0.6-0.1-0.9-0.4-1.2c-0.3-0.3-0.9-0.5-1.5-0.5c-0.6,0-1.1,0.1-1.4,0.3c-0.3,0.2-0.5,0.6-0.7,1.2l-1.3-0.2c0.1-0.6,0.3-1,0.6-1.4
		s0.7-0.6,1.2-0.8s1.1-0.3,1.8-0.3c0.7,0,1.2,0.1,1.7,0.2c0.4,0.2,0.7,0.4,0.9,0.6s0.3,0.6,0.4,0.9c0,0.2,0.1,0.6,0.1,1.2v1.8
		c0,1.3,0,2.1,0.1,2.4c0.1,0.3,0.2,0.7,0.3,1H51C50.9,122.5,50.8,122.2,50.8,121.8z M50.6,118.8c-0.5,0.2-1.2,0.4-2.2,0.5
		c-0.6,0.1-1,0.2-1.2,0.3c-0.2,0.1-0.4,0.2-0.5,0.4c-0.1,0.2-0.2,0.4-0.2,0.6c0,0.4,0.1,0.7,0.4,0.9c0.3,0.2,0.7,0.4,1.2,0.4
		c0.5,0,1-0.1,1.4-0.3c0.4-0.2,0.7-0.5,0.9-0.9c0.1-0.3,0.2-0.8,0.2-1.4V118.8z"/>
	<path class="st1" d="M54.1,122.8v-8h1.2v1.2c0.3-0.6,0.6-0.9,0.9-1.1c0.3-0.2,0.6-0.3,0.9-0.3c0.5,0,0.9,0.1,1.4,0.4l-0.5,1.3
		c-0.3-0.2-0.7-0.3-1-0.3c-0.3,0-0.6,0.1-0.8,0.3c-0.2,0.2-0.4,0.4-0.5,0.7c-0.2,0.5-0.2,1-0.2,1.6v4.2H54.1z"/>
	<path class="st1" d="M64.7,120.2l1.4,0.2c-0.2,0.8-0.6,1.5-1.2,1.9c-0.6,0.5-1.4,0.7-2.3,0.7c-1.2,0-2.1-0.4-2.8-1.1s-1-1.7-1-3
		c0-1.3,0.3-2.4,1-3.1c0.7-0.7,1.6-1.1,2.7-1.1c1.1,0,1.9,0.4,2.6,1.1c0.7,0.7,1,1.8,1,3.1c0,0.1,0,0.2,0,0.4h-6
		c0.1,0.9,0.3,1.6,0.7,2c0.4,0.5,1,0.7,1.7,0.7c0.5,0,0.9-0.1,1.3-0.4C64.2,121.2,64.5,120.8,64.7,120.2z M60.3,118h4.5
		c-0.1-0.7-0.2-1.2-0.5-1.5c-0.4-0.5-1-0.8-1.7-0.8c-0.6,0-1.1,0.2-1.6,0.6C60.5,116.8,60.3,117.3,60.3,118z"/>
	<path class="st1" d="M77.3,122.8v-1c-0.5,0.8-1.3,1.2-2.2,1.2c-0.6,0-1.2-0.2-1.8-0.5c-0.5-0.4-0.9-0.8-1.2-1.5s-0.4-1.4-0.4-2.2
		c0-0.8,0.1-1.5,0.4-2.2c0.3-0.7,0.7-1.1,1.2-1.5c0.5-0.3,1.1-0.5,1.8-0.5c0.5,0,0.9,0.1,1.3,0.3s0.7,0.5,0.9,0.8v-4h1.3v11H77.3z
		 M73,118.8c0,1,0.2,1.8,0.6,2.3s0.9,0.8,1.5,0.8c0.6,0,1.1-0.2,1.5-0.7c0.4-0.5,0.6-1.2,0.6-2.2c0-1.1-0.2-1.9-0.6-2.4
		c-0.4-0.5-0.9-0.8-1.6-0.8c-0.6,0-1.1,0.2-1.5,0.7C73.2,117,73,117.8,73,118.8z"/>
	<path class="st1" d="M86.1,120.2l1.4,0.2c-0.2,0.8-0.6,1.5-1.2,1.9c-0.6,0.5-1.4,0.7-2.3,0.7c-1.2,0-2.1-0.4-2.8-1.1s-1-1.7-1-3
		c0-1.3,0.3-2.4,1-3.1c0.7-0.7,1.6-1.1,2.7-1.1c1.1,0,1.9,0.4,2.6,1.1c0.7,0.7,1,1.8,1,3.1c0,0.1,0,0.2,0,0.4h-6
		c0.1,0.9,0.3,1.6,0.7,2c0.4,0.5,1,0.7,1.7,0.7c0.5,0,0.9-0.1,1.3-0.4C85.7,121.2,85.9,120.8,86.1,120.2z M81.7,118h4.5
		c-0.1-0.7-0.2-1.2-0.5-1.5c-0.4-0.5-1-0.8-1.7-0.8c-0.6,0-1.1,0.2-1.6,0.6C82,116.8,81.7,117.3,81.7,118z"/>
	<path class="st1" d="M93.3,123.5l1.3,0.2c0.1,0.4,0.2,0.7,0.5,0.9c0.3,0.3,0.8,0.4,1.4,0.4c0.6,0,1.1-0.1,1.5-0.4s0.6-0.6,0.7-1.1
		c0.1-0.3,0.1-0.9,0.1-1.7c-0.6,0.7-1.3,1-2.2,1c-1.1,0-1.9-0.4-2.6-1.2s-0.9-1.7-0.9-2.9c0-0.8,0.1-1.5,0.4-2.1
		c0.3-0.6,0.7-1.1,1.2-1.5c0.5-0.4,1.1-0.5,1.8-0.5c0.9,0,1.7,0.4,2.3,1.1v-1h1.2v6.9c0,1.2-0.1,2.1-0.4,2.6s-0.7,0.9-1.2,1.2
		c-0.5,0.3-1.2,0.5-2,0.5c-1,0-1.7-0.2-2.3-0.6S93.3,124.3,93.3,123.5z M94.4,118.7c0,1,0.2,1.8,0.6,2.3c0.4,0.5,0.9,0.7,1.6,0.7
		c0.6,0,1.1-0.2,1.6-0.7c0.4-0.5,0.6-1.2,0.6-2.3c0-1-0.2-1.7-0.7-2.2c-0.4-0.5-1-0.7-1.6-0.7c-0.6,0-1.1,0.2-1.5,0.7
		S94.4,117.7,94.4,118.7z"/>
	<path class="st1" d="M107.6,120.2l1.4,0.2c-0.2,0.8-0.6,1.5-1.2,1.9c-0.6,0.5-1.4,0.7-2.3,0.7c-1.2,0-2.1-0.4-2.8-1.1s-1-1.7-1-3
		c0-1.3,0.3-2.4,1-3.1c0.7-0.7,1.6-1.1,2.7-1.1c1.1,0,1.9,0.4,2.6,1.1c0.7,0.7,1,1.8,1,3.1c0,0.1,0,0.2,0,0.4h-6
		c0.1,0.9,0.3,1.6,0.7,2c0.4,0.5,1,0.7,1.7,0.7c0.5,0,0.9-0.1,1.3-0.4C107.1,121.2,107.4,120.8,107.6,120.2z M103.1,118h4.5
		c-0.1-0.7-0.2-1.2-0.5-1.5c-0.4-0.5-1-0.8-1.7-0.8c-0.6,0-1.1,0.2-1.6,0.6C103.4,116.8,103.2,117.3,103.1,118z"/>
	<path class="st1" d="M110.1,120.4l1.3-0.2c0.1,0.5,0.3,0.9,0.6,1.2s0.8,0.4,1.4,0.4c0.6,0,1.1-0.1,1.4-0.4c0.3-0.3,0.5-0.6,0.5-0.9
		c0-0.3-0.1-0.5-0.4-0.7c-0.2-0.1-0.6-0.3-1.4-0.5c-1-0.3-1.7-0.5-2.1-0.7c-0.4-0.2-0.7-0.4-0.9-0.8c-0.2-0.3-0.3-0.7-0.3-1.1
		c0-0.4,0.1-0.7,0.2-1s0.4-0.6,0.7-0.8c0.2-0.2,0.5-0.3,0.9-0.4c0.4-0.1,0.8-0.2,1.2-0.2c0.6,0,1.2,0.1,1.7,0.3
		c0.5,0.2,0.8,0.4,1,0.7s0.4,0.7,0.5,1.2l-1.3,0.2c-0.1-0.4-0.2-0.7-0.5-1c-0.3-0.2-0.7-0.3-1.2-0.3c-0.6,0-1.1,0.1-1.3,0.3
		c-0.3,0.2-0.4,0.4-0.4,0.7c0,0.2,0.1,0.3,0.2,0.5c0.1,0.1,0.3,0.3,0.5,0.4c0.1,0,0.5,0.2,1.2,0.3c1,0.3,1.6,0.5,2,0.6
		s0.7,0.4,0.9,0.7c0.2,0.3,0.3,0.7,0.3,1.2c0,0.5-0.1,0.9-0.4,1.3c-0.3,0.4-0.6,0.7-1.1,0.9c-0.5,0.2-1.1,0.3-1.7,0.3
		c-1,0-1.8-0.2-2.4-0.6C110.6,121.9,110.3,121.3,110.1,120.4z"/>
	<path class="st1" d="M121.3,121.6l0.2,1.2c-0.4,0.1-0.7,0.1-1,0.1c-0.5,0-0.9-0.1-1.1-0.2c-0.3-0.2-0.5-0.4-0.6-0.6
		c-0.1-0.3-0.2-0.8-0.2-1.6v-4.6h-1v-1.1h1v-2l1.3-0.8v2.8h1.4v1.1H120v4.7c0,0.4,0,0.6,0.1,0.7s0.1,0.2,0.2,0.3
		c0.1,0.1,0.3,0.1,0.5,0.1C120.9,121.6,121.1,121.6,121.3,121.6z"/>
	<path class="st1" d="M127.9,121.8c-0.5,0.4-1,0.7-1.4,0.9s-1,0.3-1.5,0.3c-0.9,0-1.6-0.2-2-0.6s-0.7-1-0.7-1.6
		c0-0.4,0.1-0.7,0.3-1.1c0.2-0.3,0.4-0.6,0.7-0.8c0.3-0.2,0.6-0.3,1-0.4c0.3-0.1,0.7-0.1,1.2-0.2c1.1-0.1,1.9-0.3,2.4-0.5
		c0-0.2,0-0.3,0-0.4c0-0.6-0.1-0.9-0.4-1.2c-0.3-0.3-0.9-0.5-1.5-0.5c-0.6,0-1.1,0.1-1.4,0.3c-0.3,0.2-0.5,0.6-0.7,1.2l-1.3-0.2
		c0.1-0.6,0.3-1,0.6-1.4c0.3-0.3,0.7-0.6,1.2-0.8c0.5-0.2,1.1-0.3,1.8-0.3c0.7,0,1.2,0.1,1.7,0.2c0.4,0.2,0.7,0.4,0.9,0.6
		c0.2,0.2,0.3,0.6,0.4,0.9c0,0.2,0.1,0.6,0.1,1.2v1.8c0,1.3,0,2.1,0.1,2.4c0.1,0.3,0.2,0.7,0.3,1h-1.4
		C128,122.5,127.9,122.2,127.9,121.8z M123.4,113.6c0-0.5,0.1-0.9,0.4-1.2c0.3-0.3,0.7-0.5,1.1-0.5c0.3,0,0.7,0.1,1.3,0.4
		c0.3,0.2,0.5,0.2,0.7,0.2c0.2,0,0.3,0,0.4-0.1c0.1-0.1,0.1-0.3,0.2-0.5h1c0,0.6-0.2,1-0.4,1.3c-0.3,0.3-0.6,0.4-1,0.4
		c-0.3,0-0.7-0.1-1.2-0.4c-0.3-0.2-0.6-0.3-0.7-0.3c-0.2,0-0.3,0.1-0.4,0.2c-0.1,0.1-0.2,0.3-0.2,0.5H123.4z M127.8,118.8
		c-0.5,0.2-1.2,0.4-2.2,0.5c-0.6,0.1-1,0.2-1.2,0.3c-0.2,0.1-0.4,0.2-0.5,0.4c-0.1,0.2-0.2,0.4-0.2,0.6c0,0.4,0.1,0.7,0.4,0.9
		c0.3,0.2,0.7,0.4,1.2,0.4c0.5,0,1-0.1,1.4-0.3c0.4-0.2,0.7-0.5,0.9-0.9c0.1-0.3,0.2-0.8,0.2-1.4V118.8z"/>
	<path class="st1" d="M130.7,118.8c0-1.5,0.4-2.6,1.2-3.3c0.7-0.6,1.5-0.9,2.5-0.9c1.1,0,2,0.4,2.7,1.1s1,1.7,1,3
		c0,1-0.2,1.8-0.5,2.4c-0.3,0.6-0.8,1-1.3,1.4s-1.2,0.5-1.9,0.5c-1.1,0-2-0.4-2.7-1.1C131.1,121.2,130.7,120.2,130.7,118.8z
		 M132.1,118.8c0,1,0.2,1.8,0.7,2.3c0.4,0.5,1,0.8,1.7,0.8c0.7,0,1.2-0.3,1.7-0.8c0.4-0.5,0.7-1.3,0.7-2.3c0-1-0.2-1.7-0.7-2.2
		c-0.4-0.5-1-0.8-1.7-0.8c-0.7,0-1.2,0.3-1.7,0.8C132.3,117,132.1,117.8,132.1,118.8z"/>
	<path class="st1" d="M144.1,113.3v-1.6h1.4v1.6H144.1z M144.1,122.8v-8h1.4v8H144.1z"/>
	<path class="st1" d="M147.5,122.8v-8h1.2v1.1c0.6-0.9,1.4-1.3,2.5-1.3c0.5,0,0.9,0.1,1.3,0.3c0.4,0.2,0.7,0.4,0.9,0.7
		c0.2,0.3,0.3,0.6,0.4,1c0,0.3,0.1,0.7,0.1,1.3v4.9h-1.4v-4.9c0-0.6-0.1-1-0.2-1.2c-0.1-0.3-0.3-0.5-0.6-0.7s-0.6-0.2-0.9-0.2
		c-0.6,0-1.1,0.2-1.5,0.5s-0.6,1.1-0.6,2.1v4.4H147.5z"/>
	<path class="st1" d="M161.3,122.8v-1c-0.5,0.8-1.3,1.2-2.2,1.2c-0.6,0-1.2-0.2-1.8-0.5c-0.5-0.4-0.9-0.8-1.2-1.5
		c-0.3-0.6-0.4-1.4-0.4-2.2c0-0.8,0.1-1.5,0.4-2.2c0.3-0.7,0.7-1.1,1.2-1.5c0.5-0.3,1.1-0.5,1.8-0.5c0.5,0,0.9,0.1,1.3,0.3
		c0.4,0.2,0.7,0.5,0.9,0.8v-4h1.3v11H161.3z M157,118.8c0,1,0.2,1.8,0.6,2.3s0.9,0.8,1.5,0.8c0.6,0,1.1-0.2,1.5-0.7
		c0.4-0.5,0.6-1.2,0.6-2.2c0-1.1-0.2-1.9-0.6-2.4c-0.4-0.5-0.9-0.8-1.6-0.8c-0.6,0-1.1,0.2-1.5,0.7C157.2,117,157,117.8,157,118.8z"
		/>
	<path class="st1" d="M169.9,122.8v-1.2c-0.6,0.9-1.5,1.4-2.5,1.4c-0.5,0-0.9-0.1-1.3-0.3c-0.4-0.2-0.7-0.4-0.9-0.7s-0.3-0.6-0.4-1
		c-0.1-0.3-0.1-0.7-0.1-1.3v-5h1.4v4.4c0,0.7,0,1.2,0.1,1.4c0.1,0.4,0.3,0.6,0.5,0.8c0.3,0.2,0.6,0.3,1,0.3c0.4,0,0.8-0.1,1.1-0.3
		c0.4-0.2,0.6-0.5,0.8-0.8c0.1-0.4,0.2-0.9,0.2-1.6v-4.3h1.4v8H169.9z"/>
	<path class="st1" d="M172.7,120.4l1.3-0.2c0.1,0.5,0.3,0.9,0.6,1.2s0.8,0.4,1.4,0.4c0.6,0,1.1-0.1,1.4-0.4c0.3-0.3,0.5-0.6,0.5-0.9
		c0-0.3-0.1-0.5-0.4-0.7c-0.2-0.1-0.6-0.3-1.4-0.5c-1-0.3-1.7-0.5-2.1-0.7c-0.4-0.2-0.7-0.4-0.9-0.8c-0.2-0.3-0.3-0.7-0.3-1.1
		c0-0.4,0.1-0.7,0.2-1c0.2-0.3,0.4-0.6,0.7-0.8c0.2-0.2,0.5-0.3,0.9-0.4c0.4-0.1,0.8-0.2,1.2-0.2c0.6,0,1.2,0.1,1.7,0.3
		c0.5,0.2,0.8,0.4,1,0.7c0.2,0.3,0.4,0.7,0.5,1.2l-1.3,0.2c-0.1-0.4-0.2-0.7-0.5-1c-0.3-0.2-0.7-0.3-1.2-0.3c-0.6,0-1.1,0.1-1.3,0.3
		c-0.3,0.2-0.4,0.4-0.4,0.7c0,0.2,0.1,0.3,0.2,0.5c0.1,0.1,0.3,0.3,0.5,0.4c0.1,0,0.5,0.2,1.2,0.3c1,0.3,1.6,0.5,2,0.6
		s0.7,0.4,0.9,0.7c0.2,0.3,0.3,0.7,0.3,1.2c0,0.5-0.1,0.9-0.4,1.3c-0.3,0.4-0.6,0.7-1.1,0.9c-0.5,0.2-1.1,0.3-1.7,0.3
		c-1,0-1.8-0.2-2.4-0.6C173.2,121.9,172.8,121.3,172.7,120.4z"/>
	<path class="st1" d="M183.9,121.6l0.2,1.2c-0.4,0.1-0.7,0.1-1,0.1c-0.5,0-0.9-0.1-1.1-0.2c-0.3-0.2-0.5-0.4-0.6-0.6
		c-0.1-0.3-0.2-0.8-0.2-1.6v-4.6h-1v-1.1h1v-2l1.3-0.8v2.8h1.4v1.1h-1.4v4.7c0,0.4,0,0.6,0.1,0.7s0.1,0.2,0.2,0.3
		c0.1,0.1,0.3,0.1,0.5,0.1C183.5,121.6,183.7,121.6,183.9,121.6z"/>
	<path class="st1" d="M185.2,122.8v-8h1.2v1.2c0.3-0.6,0.6-0.9,0.9-1.1s0.6-0.3,0.9-0.3c0.5,0,0.9,0.1,1.4,0.4l-0.5,1.3
		c-0.3-0.2-0.7-0.3-1-0.3c-0.3,0-0.6,0.1-0.8,0.3c-0.2,0.2-0.4,0.4-0.5,0.7c-0.2,0.5-0.2,1-0.2,1.6v4.2H185.2z"/>
	<path class="st1" d="M190.4,113.3v-1.6h1.4v1.6H190.4z M190.4,122.8v-8h1.4v8H190.4z"/>
	<path class="st1" d="M199,121.8c-0.5,0.4-1,0.7-1.4,0.9s-1,0.3-1.5,0.3c-0.9,0-1.6-0.2-2-0.6s-0.7-1-0.7-1.6c0-0.4,0.1-0.7,0.3-1.1
		c0.2-0.3,0.4-0.6,0.7-0.8c0.3-0.2,0.6-0.3,1-0.4c0.3-0.1,0.7-0.1,1.2-0.2c1.1-0.1,1.9-0.3,2.4-0.5c0-0.2,0-0.3,0-0.4
		c0-0.6-0.1-0.9-0.4-1.2c-0.3-0.3-0.9-0.5-1.5-0.5c-0.6,0-1.1,0.1-1.4,0.3c-0.3,0.2-0.5,0.6-0.7,1.2l-1.3-0.2c0.1-0.6,0.3-1,0.6-1.4
		c0.3-0.3,0.7-0.6,1.2-0.8c0.5-0.2,1.1-0.3,1.8-0.3c0.7,0,1.2,0.1,1.7,0.2c0.4,0.2,0.7,0.4,0.9,0.6c0.2,0.2,0.3,0.6,0.4,0.9
		c0,0.2,0.1,0.6,0.1,1.2v1.8c0,1.3,0,2.1,0.1,2.4c0.1,0.3,0.2,0.7,0.3,1h-1.4C199.1,122.5,199,122.2,199,121.8z M198.9,118.8
		c-0.5,0.2-1.2,0.4-2.2,0.5c-0.6,0.1-1,0.2-1.2,0.3c-0.2,0.1-0.4,0.2-0.5,0.4c-0.1,0.2-0.2,0.4-0.2,0.6c0,0.4,0.1,0.7,0.4,0.9
		c0.3,0.2,0.7,0.4,1.2,0.4c0.5,0,1-0.1,1.4-0.3c0.4-0.2,0.7-0.5,0.9-0.9c0.1-0.3,0.2-0.8,0.2-1.4V118.8z"/>
	<path class="st1" d="M202.3,122.8v-11h1.4v11H202.3z"/>
</g>
</svg>
